<?xml version="1.0" encoding="UTF-8"?>
<!DOCTYPE svg PUBLIC "-//W3C//DTD SVG 1.1//EN" "http://www.w3.org/Graphics/SVG/1.1/DTD/svg11.dtd">
<!-- Creator: CorelDRAW X7 -->
<svg xmlns="http://www.w3.org/2000/svg" xml:space="preserve" width="254mm" height="254mm" version="1.1" style="shape-rendering:geometricPrecision; text-rendering:geometricPrecision; image-rendering:optimizeQuality; fill-rule:evenodd; clip-rule:evenodd"
viewBox="0 0 25400 25400"
 xmlns:xlink="http://www.w3.org/1999/xlink">
 <defs>
  <style type="text/css">
   <![CDATA[
    .str0 {stroke:#332C2B;stroke-width:20}
    .fil0 {fill:#12294B}
    .fil13 {fill:#1C55C6}
    .fil10 {fill:#1E59CF}
    .fil11 {fill:#205FDC}
    .fil16 {fill:#2263E4}
    .fil23 {fill:#2366EC}
    .fil21 {fill:#2367ED}
    .fil14 {fill:#2469F3}
    .fil5 {fill:#2B69F6}
    .fil4 {fill:#2C69F5}
    .fil22 {fill:#3068F4}
    .fil24 {fill:#3168F4}
    .fil19 {fill:#3467F3}
    .fil9 {fill:#3866F2}
    .fil3 {fill:#3A65F2}
    .fil17 {fill:#3B65F2}
    .fil18 {fill:#4164F0}
    .fil8 {fill:#6C58E6}
    .fil2 {fill:#6F58E5}
    .fil15 {fill:#8153E1}
    .fil1 {fill:#8B50DE}
    .fil6 {fill:#AD47D6}
    .fil7 {fill:#C840D0}
    .fil12 {fill:#2469F3;fill-rule:nonzero}
    .fil20 {fill:#2366EC;fill-opacity:0.949020}
   ]]>
  </style>
 </defs>
 <g id="Layer_x0020_1">
  <metadata id="CorelCorpID_0Corel-Layer"/>
  <rect class="fil0 str0" width="25400" height="25400"/>
  <g id="_1900425215680">
   <polygon class="fil1" points="11186,8018 10613,8726 10266,9447 9952,10420 9907,11064 10482,10211 "/>
   <polygon class="fil2" points="10617,11345 9907,11064 10010,11786 "/>
   <polygon class="fil3" points="10617,11345 10010,11786 10337,12667 "/>
   <polygon class="fil4" points="10617,11345 10337,12667 11158,12288 "/>
   <polygon class="fil5" points="10617,11345 11158,12288 11455,11177 "/>
   <polygon class="fil6" points="10617,11345 11455,11177 11057,10288 "/>
   <polygon class="fil7" points="11057,10288 11032,9298 11186,8018 10482,10211 "/>
   <polygon class="fil1" points="8987,11739 8911,13451 9364,13504 "/>
   <polygon class="fil7" points="8987,11739 9469,12829 9364,13504 "/>
   <polygon class="fil2" points="8911,13451 9538,14611 10312,14249 9364,13504 "/>
   <polygon class="fil8" points="9364,13504 9469,12829 10451,13401 10312,14249 "/>
   <polygon class="fil9" points="10312,14249 9538,14611 10763,15448 11053,14523 "/>
   <polygon class="fil1" points="10312,14249 11053,14523 10451,13401 "/>
   <polygon class="fil10" points="11053,14523 10763,15448 12247,15339 11914,14206 "/>
   <polygon class="fil1" points="11053,14523 11914,14206 11701,13033 10451,13401 "/>
   <polygon class="fil11" points="11914,14206 12247,15339 13513,13724 12751,13216 "/>
   <path class="fil12" d="M11918 14207l331 1124 1258 -1606 -755 -503 -834 985zm325 1133l-333 -1133 0 -2 1 -2 837 -989 2 -3 3 2 762 508 3 3 -2 3 -1266 1614 -5 6 -2 -7z"/>
   <polygon class="fil2" points="11914,14206 12751,13216 12641,11753 11701,13033 "/>
   <polygon class="fil13" points="12247,15339 13513,13724 14550,13578 13686,14602 "/>
   <polygon class="fil14" points="13513,13724 14550,13578 15066,12409 14664,12454 "/>
   <polygon class="fil4" points="13513,13724 12751,13216 13660,12757 14664,12454 "/>
   <polygon class="fil2" points="13660,12757 14342,12163 14664,12454 "/>
   <polygon class="fil15" points="14664,12454 15066,12409 14863,10487 "/>
   <polygon class="fil2" points="14664,12454 14342,12163 14863,10487 "/>
   <polygon class="fil16" points="12751,13216 13462,10947 14052,10639 13660,12757 "/>
   <polygon class="fil2" points="12751,13216 12641,11753 12988,10432 13462,10947 "/>
   <polygon class="fil15" points="13462,10947 14052,10639 13428,9154 13089,9169 "/>
   <polygon class="fil2" points="13462,10947 12988,10432 12590,9112 13089,9169 "/>
   <polygon class="fil7" points="13089,9169 13428,9154 12580,8158 11600,7270 "/>
   <polygon class="fil1" points="13089,9169 12590,9112 11600,7270 "/>
   <polygon class="fil7" points="12916,4985 15618,7981 15232,8263 "/>
   <polygon class="fil7" points="12916,4985 15232,8263 15274,9086 "/>
   <polygon class="fil6" points="15232,8263 16629,12480 17203,10761 15618,7981 "/>
   <polygon class="fil1" points="15232,8263 15274,9086 15739,12430 16629,12480 "/>
   <polygon class="fil15" points="17203,10761 16629,12480 17616,14308 "/>
   <polygon class="fil8" points="17616,14308 15850,15155 16629,12480 "/>
   <polygon class="fil2" points="15850,15155 14622,14818 15739,12430 16629,12480 "/>
   <polygon class="fil9" points="16733,17045 17616,14308 15850,15155 "/>
   <polygon class="fil5" points="16733,17045 15242,17309 15850,15155 "/>
   <polygon class="fil4" points="15242,17309 13750,16984 15850,15155 "/>
   <polygon class="fil2" points="13750,16984 12615,15800 14622,14818 15850,15155 "/>
   <polygon class="fil17" points="18000,15699 18580,13657 18347,15748 "/>
   <polygon class="fil18" points="18347,15748 18751,15287 18580,13657 "/>
   <polygon class="fil19" points="18307,17070 18751,15287 18347,15748 "/>
   <polygon class="fil14" points="16940,18922 18307,17070 18347,15748 17128,17611 "/>
   <polygon class="fil5" points="17128,17611 16733,17045 18000,15699 18347,15748 "/>
   <polygon class="fil10" points="16940,18922 14382,20384 12962,18677 17128,17611 "/>
   <polygon class="fil20" points="17128,17611 12962,18677 15242,17309 16733,17045 "/>
   <polygon class="fil21" points="15242,17309 12962,18677 13750,16984 "/>
   <polygon class="fil13" points="14382,20384 12962,18677 11851,20415 "/>
   <polygon class="fil11" points="12962,18677 10008,16942 9623,18433 11851,20415 "/>
   <polygon class="fil14" points="12962,18677 13750,16984 10008,16942 "/>
   <polygon class="fil1" points="13750,16984 12615,15800 10706,16118 10008,16942 "/>
   <polygon class="fil22" points="9623,18433 8392,16163 7752,14432 10008,16942 "/>
   <polygon class="fil17" points="10008,16942 10706,16118 9271,15174 7752,14432 "/>
   <polygon class="fil1" points="9271,15174 8377,13767 7752,14432 "/>
   <polygon class="fil7" points="7752,14432 7621,11646 8377,13767 "/>
   <polygon class="fil1" points="7752,14432 7621,11646 6649,14767 "/>
   <polygon class="fil17" points="7752,14432 6649,14767 7262,17466 7874,17001 "/>
   <polygon class="fil21" points="7262,17466 9780,19796 7874,17001 "/>
   <polygon class="fil23" points="7874,17001 8611,17587 9780,19796 "/>
   <polygon class="fil24" points="7874,17001 8611,17587 8392,16163 7752,14432 "/>
   <polygon class="fil1" points="10482,10211 10617,11345 11057,10288 "/>
   <polygon class="fil2" points="10482,10211 9907,11064 10617,11345 "/>
  </g>
 </g>
</svg>
